PathFileType	4	(X/Y/Z)	C:/Users/beibeiliu/ov580/test_trc/User3\sequence.5_training_dense_left.trc
DataRate	CameraRate	NumFrames	NumMarkers	Units	OrigDataRate	OrigDataStartFrame	OrigNumFrames
120	120	9	19	mm	120	24	119
Frame#	Time	ThumbCMC			ThumbMCP			ThumbIP			ThumbTip			IndexMCP			IndexPIP			IndexTip			MiddleMCP			MiddlePIP			MiddleTip			RingMCP			RingPIP			RingTip			PinkyMCP			PinkyPIP			PinkyTip			BackHand1			BackHand2			BackHand3	
		X0	Y0	Z0	X1	Y1	Z1	X2	Y2	Z2	X3	Y3	Z3	X4	Y4	Z4	X5	Y5	Z5	X6	Y6	Z6	X7	Y7	Z7	X8	Y8	Z8	X9	Y9	Z9	X10	Y10	Z10	X11	Y11	Z11	X12	Y12	Z12	X13	Y13	Z13	X14	Y14	Z14	X15	Y15	Z15	X16	Y16	Z16	X17	Y17	Z17	X18	Y18	Z18	
23	0.191667	-182.799	-15.929	10.9101	-165.961	-26.3071	-11.5743	-146.449	-33.2521	-28.4114	-132.392	-39.4499	-50.1248	-193.77	-18.7692	-62.0591	-193.736	-51.5598	-54.9298	-193.604	-43.6463	-26.0966	-217.992	-28.7876	-63.628	-207.775	-55.9613	-49.4242	-210.912	-32.5496	-15.6317	-236.221	-33.3208	-52.3579	-224.857	-58.0557	-35.2866	-219.549	-39.788	-9.20195	-246.289	-36.4805	-43.0983	-234.231	-55.4466	-25.9917	-233.263	-39.1149	-3.38239	-242.868	4.96457	-8.789	-245.063	3.63516	21.0928	-210.455	8.4157	2.90065	
24	0.2	-178.592	-14.899	12.3748	-160.597	-25.5399	-10.4855	-147.301	-32.9532	-29.0665	-130.911	-39.0276	-46.6105	-194.57	-17.9733	-61.5251	-191.854	-48.8666	-58.6593	-192.239	-40.6042	-24.9031	-216.232	-25.112	-61.2012	-211.853	-55.0291	-49.9798	-214.479	-31.9254	-14.5069	-235.435	-33.3571	-52.3699	-226.153	-57.8668	-37.3879	-224.081	-40.9872	-8.93988	-247.632	-38.2863	-42.9786	-238.809	-56.9774	-27.0957	-232.996	-37.5304	-3.7277	-239.375	8.8673	-11.2632	-245.298	5.50661	19.6431	-212.009	9.56165	7.39026	
25	0.208333	-183.623	-15.3183	12.8823	-160.548	-24.45	-7.87035	-141.961	-30.3162	-31.8824	-129.125	-37.191	-46.0783	-197.695	-19.0184	-63.7005	-191.7	-49.6091	-55.2173	-192.87	-38.2132	-24.1364	-215.255	-26.2279	-63.2035	-207.151	-54.7323	-48.363	-211.84	-31.5499	-15.8238	-234.763	-33.409	-53.6866	-225.984	-57.6679	-34.1832	-223.428	-35.8108	-7.45178	-245.419	-37.055	-43.3963	-235.071	-55.0523	-25.2784	-234.338	-35.033	-3.09313	-244.258	7.54632	-9.07531	-241.102	7.21274	18.9862	-211.191	9.96665	5.4416	
26	0.216667	-179.362	-13.898	10.8248	-160.514	-23.5046	-10.6069	-145.83	-29.3015	-33.0464	-133.654	-36.6914	-49.7729	-193.075	-15.4885	-60.6222	-193.423	-48.4358	-58.3183	-193.458	-41.4658	-26.3956	-218.033	-25.9924	-62.6875	-206.895	-52.5707	-51.4355	-208.423	-34.6181	-16.7077	-230.053	-31.684	-54.4358	-222.14	-56.4696	-36.3833	-217.596	-36.1175	-8.82944	-248.811	-35.8488	-42.8755	-232.324	-52.8425	-26.7163	-232.007	-36.901	-2.40099	-244.27	6.75283	-13.1408	-245.125	6.3482	23.0591	-209.285	10.4833	4.49118	
27	0.225	-182.934	-14.1742	11.766	-160.437	-24.1659	-7.23688	-141.649	-28.3871	-33.5961	-127.778	-35.8726	-48.475	-197.276	-14.4427	-59.6447	-189.26	-48.4931	-56.5572	-195.611	-40.7809	-25.7613	-213.614	-25.1305	-62.9701	-210.482	-53.7398	-50.2075	-208.068	-29.9612	-15.1452	-234.021	-30.5372	-53.208	-224.026	-55.8811	-35.5643	-220.742	-39.8016	-9.42668	-250.246	-36.0276	-43.402	-234.793	-53.5029	-30.6388	-232.57	-36.2006	-4.76859	-239.465	6.86511	-10.1892	-244.078	4.20904	22.9453	-210.617	10.6101	2.881	
28	0.233333	-178.441	-12.8831	10.595	-164.281	-23.9038	-7.36142	-144.71	-29.514	-30.6946	-131.809	-36.3741	-46.4272	-195.418	-15.7058	-61.3961	-191.801	-46.702	-58.0809	-195.627	-36.2499	-22.8505	-213.007	-20.7573	-60.5681	-207.05	-52.7601	-49.1759	-210.561	-34.2779	-18.0982	-230.702	-31.5532	-53.2804	-220.852	-55.6423	-37.003	-217.713	-39.3505	-10.2654	-246.461	-33.0791	-43.4643	-234.493	-53.8179	-26.9936	-232.571	-35.228	-2.92404	-242.975	8.64414	-12.9038	-241.362	6.21509	24.4659	-209.736	12.642	6.3158	
29	0.241667	-180.093	-13.4346	13.8563	-164.732	-22.7634	-9.96783	-141.201	-28.4702	-28.1332	-129.17	-36.4881	-45.1167	-197.409	-13.7315	-59.9394	-189.945	-46.5771	-57.3318	-190.54	-35.4575	-23.374	-217.459	-23.1029	-62.4053	-208.998	-52.0673	-49.9002	-209.483	-29.0938	-15.6722	-231.017	-29.9556	-52.5853	-222.925	-54.5446	-37.6814	-221.627	-39.0042	-9.01996	-245.236	-32.458	-42.3964	-233.082	-53.5113	-26.6885	-231.235	-33.5312	-3.96319	-238.616	8.80644	-8.67076	-240.316	5.52634	21.5055	-208.378	12.9819	6.68958	
30	0.25	-183.576	-11.7991	9.55979	-161.354	-20.9546	-10.7892	-147.051	-29.0989	-29.5074	-131.869	-35.5116	-48.7408	-194.139	-16.0486	-62.8974	-193.035	-45.7106	-58.4203	-195.132	-35.3897	-22.3271	-219.081	-20.8493	-60.1358	-211.305	-52.2573	-49.5832	-212.436	-32.7786	-17.2101	-232.749	-30.9893	-53.7836	-226.065	-55.2095	-35.3638	-217.624	-36.5487	-9.95316	-247.196	-35.3899	-42.3377	-236.143	-53.593	-27.3067	-232.699	-31.8045	-0.883242	-245.09	9.98912	-11.4687	-243.669	5.90714	22.9022	-211.681	13.8441	5.37297	
31	0.258333	-182.76	-12.0465	12.7902	-160.844	-22.4108	-8.33797	-147.232	-28.3506	-28.2286	-129.616	-34.9851	-44.4559	-197.933	-16.6371	-61.9546	-189.822	-45.8225	-57.0932	-191.521	-36.8637	-23.3058	-216.181	-24.5609	-61.8456	-208.824	-51.7457	-48.0127	-208.977	-30.6467	-14.3144	-235.795	-30.4051	-50.5263	-225.317	-54.6631	-39.074	-219.513	-37.8024	-8.93811	-251.033	-34.6357	-40.302	-236.683	-55.1735	-24.0782	-233.867	-37.1886	-2.38101	-244.077	9.37008	-9.62708	-241.687	4.90251	24.3246	-207.564	12.5016	4.87648	
